<svg width="570" height="406" viewBox="0 0 570 406" fill="none" xmlns="http://www.w3.org/2000/svg">
<path d="M545 0H25C20.5817 0 17 3.58172 17 8V338C17 342.418 20.5817 346 25 346H545C549.418 346 553 342.418 553 338V8C553 3.58172 549.418 0 545 0Z" fill="#E8EAF6"/>
<mask id="mask0_56_192" style="mask-type:luminance" maskUnits="userSpaceOnUse" x="17" y="0" width="536" height="346">
<path d="M545 0H25C20.5817 0 17 3.58172 17 8V338C17 342.418 20.5817 346 25 346H545C549.418 346 553 342.418 553 338V8C553 3.58172 549.418 0 545 0Z" fill="white"/>
</mask>
<g mask="url(#mask0_56_192)">
<path fill-rule="evenodd" clip-rule="evenodd" d="M13.47 0.196777H560.47V59.1968H13.47V0.196777Z" fill="#242A45"/>
<path opacity="0.245" d="M55.47 46.1968C64.3065 46.1968 71.47 39.0333 71.47 30.1968C71.47 21.3602 64.3065 14.1968 55.47 14.1968C46.6334 14.1968 39.47 21.3602 39.47 30.1968C39.47 39.0333 46.6334 46.1968 55.47 46.1968Z" fill="white"/>
<path opacity="0.104" d="M516.47 46.1968C525.306 46.1968 532.47 39.0333 532.47 30.1968C532.47 21.3602 525.306 14.1968 516.47 14.1968C507.633 14.1968 500.47 21.3602 500.47 30.1968C500.47 39.0333 507.633 46.1968 516.47 46.1968Z" fill="white"/>
<path opacity="0.75" d="M203.47 20.1968H89.47C87.8131 20.1968 86.47 21.5399 86.47 23.1968C86.47 24.8536 87.8131 26.1968 89.47 26.1968H203.47C205.127 26.1968 206.47 24.8536 206.47 23.1968C206.47 21.5399 205.127 20.1968 203.47 20.1968Z" fill="white"/>
<path opacity="0.25" d="M147.47 34.1968H89.47C87.8131 34.1968 86.47 35.5399 86.47 37.1968C86.47 38.8536 87.8131 40.1968 89.47 40.1968H147.47C149.127 40.1968 150.47 38.8536 150.47 37.1968C150.47 35.5399 149.127 34.1968 147.47 34.1968Z" fill="white"/>
</g>
<mask id="mask1_56_192" style="mask-type:luminance" maskUnits="userSpaceOnUse" x="17" y="0" width="536" height="346">
<path d="M545 0H25C20.5817 0 17 3.58172 17 8V338C17 342.418 20.5817 346 25 346H545C549.418 346 553 342.418 553 338V8C553 3.58172 549.418 0 545 0Z" fill="white"/>
</mask>
<g mask="url(#mask1_56_192)">
<path d="M327 93H82C77.5817 93 74 96.5817 74 101V401C74 405.418 77.5817 409 82 409H327C331.418 409 335 405.418 335 401V101C335 96.5817 331.418 93 327 93Z" fill="white"/>
<path d="M489 93H377C372.582 93 369 96.5817 369 101V401C369 405.418 372.582 409 377 409H489C493.418 409 497 405.418 497 401V101C497 96.5817 493.418 93 489 93Z" fill="white"/>
<path opacity="0.5" d="M269.47 131.197H155.47C153.813 131.197 152.47 132.54 152.47 134.197C152.47 135.854 153.813 137.197 155.47 137.197H269.47C271.127 137.197 272.47 135.854 272.47 134.197C272.47 132.54 271.127 131.197 269.47 131.197Z" fill="#242A45"/>
</g>
<path d="M121.47 157.197C130.307 157.197 137.47 150.033 137.47 141.197C137.47 132.36 130.307 125.197 121.47 125.197C112.633 125.197 105.47 132.36 105.47 141.197C105.47 150.033 112.633 157.197 121.47 157.197Z" fill="#F98E5D"/>
<path opacity="0.25" d="M474.47 115.197H392.47C390.813 115.197 389.47 116.54 389.47 118.197C389.47 119.854 390.813 121.197 392.47 121.197H474.47C476.127 121.197 477.47 119.854 477.47 118.197C477.47 116.54 476.127 115.197 474.47 115.197Z" fill="#242A45"/>
<path opacity="0.25" d="M474.47 135.197H392.47C390.813 135.197 389.47 136.54 389.47 138.197C389.47 139.854 390.813 141.197 392.47 141.197H474.47C476.127 141.197 477.47 139.854 477.47 138.197C477.47 136.54 476.127 135.197 474.47 135.197Z" fill="#242A45"/>
<path opacity="0.25" d="M474.47 155.197H392.47C390.813 155.197 389.47 156.54 389.47 158.197C389.47 159.854 390.813 161.197 392.47 161.197H474.47C476.127 161.197 477.47 159.854 477.47 158.197C477.47 156.54 476.127 155.197 474.47 155.197Z" fill="#242A45"/>
<path opacity="0.25" d="M474.47 175.197H392.47C390.813 175.197 389.47 176.54 389.47 178.197C389.47 179.854 390.813 181.197 392.47 181.197H474.47C476.127 181.197 477.47 179.854 477.47 178.197C477.47 176.54 476.127 175.197 474.47 175.197Z" fill="#242A45"/>
<path opacity="0.25" d="M474.47 209.197H392.47C390.813 209.197 389.47 210.54 389.47 212.197C389.47 213.854 390.813 215.197 392.47 215.197H474.47C476.127 215.197 477.47 213.854 477.47 212.197C477.47 210.54 476.127 209.197 474.47 209.197Z" fill="#242A45"/>
<path opacity="0.25" d="M474.47 229.197H392.47C390.813 229.197 389.47 230.54 389.47 232.197C389.47 233.854 390.813 235.197 392.47 235.197H474.47C476.127 235.197 477.47 233.854 477.47 232.197C477.47 230.54 476.127 229.197 474.47 229.197Z" fill="#242A45"/>
<path opacity="0.25" d="M474.47 249.197H392.47C390.813 249.197 389.47 250.54 389.47 252.197C389.47 253.854 390.813 255.197 392.47 255.197H474.47C476.127 255.197 477.47 253.854 477.47 252.197C477.47 250.54 476.127 249.197 474.47 249.197Z" fill="#242A45"/>
<path opacity="0.25" d="M213.47 145.197H155.47C153.813 145.197 152.47 146.54 152.47 148.197C152.47 149.854 153.813 151.197 155.47 151.197H213.47C215.127 151.197 216.47 149.854 216.47 148.197C216.47 146.54 215.127 145.197 213.47 145.197Z" fill="#242A45"/>
<path d="M121.47 213.197C130.307 213.197 137.47 206.033 137.47 197.197C137.47 188.36 130.307 181.197 121.47 181.197C112.633 181.197 105.47 188.36 105.47 197.197C105.47 206.033 112.633 213.197 121.47 213.197Z" fill="#6AC6D6"/>
<path opacity="0.5" d="M269.47 187.197H155.47C153.813 187.197 152.47 188.54 152.47 190.197C152.47 191.854 153.813 193.197 155.47 193.197H269.47C271.127 193.197 272.47 191.854 272.47 190.197C272.47 188.54 271.127 187.197 269.47 187.197Z" fill="#242A45"/>
<path opacity="0.25" d="M213.47 201.197H155.47C153.813 201.197 152.47 202.54 152.47 204.197C152.47 205.854 153.813 207.197 155.47 207.197H213.47C215.127 207.197 216.47 205.854 216.47 204.197C216.47 202.54 215.127 201.197 213.47 201.197Z" fill="#242A45"/>
<path d="M121.47 269.197C130.307 269.197 137.47 262.033 137.47 253.197C137.47 244.36 130.307 237.197 121.47 237.197C112.633 237.197 105.47 244.36 105.47 253.197C105.47 262.033 112.633 269.197 121.47 269.197Z" fill="#A47ED4"/>
<path opacity="0.5" d="M269.47 243.197H155.47C153.813 243.197 152.47 244.54 152.47 246.197C152.47 247.854 153.813 249.197 155.47 249.197H269.47C271.127 249.197 272.47 247.854 272.47 246.197C272.47 244.54 271.127 243.197 269.47 243.197Z" fill="#242A45"/>
<path opacity="0.25" d="M213.47 257.197H155.47C153.813 257.197 152.47 258.54 152.47 260.197C152.47 261.854 153.813 263.197 155.47 263.197H213.47C215.127 263.197 216.47 261.854 216.47 260.197C216.47 258.54 215.127 257.197 213.47 257.197Z" fill="#242A45"/>
<path d="M121.47 325.197C130.307 325.197 137.47 318.033 137.47 309.197C137.47 300.36 130.307 293.197 121.47 293.197C112.633 293.197 105.47 300.36 105.47 309.197C105.47 318.033 112.633 325.197 121.47 325.197Z" fill="#EC7878"/>
<path opacity="0.5" d="M269.47 299.197H155.47C153.813 299.197 152.47 300.54 152.47 302.197C152.47 303.854 153.813 305.197 155.47 305.197H269.47C271.127 305.197 272.47 303.854 272.47 302.197C272.47 300.54 271.127 299.197 269.47 299.197Z" fill="#242A45"/>
<path opacity="0.25" d="M213.47 313.197H155.47C153.813 313.197 152.47 314.54 152.47 316.197C152.47 317.854 153.813 319.197 155.47 319.197H213.47C215.127 319.197 216.47 317.854 216.47 316.197C216.47 314.54 215.127 313.197 213.47 313.197Z" fill="#242A45"/>
</svg>
