<svg width="570" height="406" viewBox="0 0 570 406" fill="none" xmlns="http://www.w3.org/2000/svg">
<path d="M434 0H100C95.5817 0 92 3.58172 92 8V338C92 342.418 95.5817 346 100 346H434C438.418 346 442 342.418 442 338V8C442 3.58172 438.418 0 434 0Z" fill="#E8EAF6"/>
<mask id="mask0_56_193" style="mask-type:luminance" maskUnits="userSpaceOnUse" x="92" y="0" width="350" height="346">
<path d="M434 0H100C95.5817 0 92 3.58172 92 8V338C92 342.418 95.5817 346 100 346H434C438.418 346 442 342.418 442 338V8C442 3.58172 438.418 0 434 0Z" fill="white"/>
</mask>
<g mask="url(#mask0_56_193)">
<path fill-rule="evenodd" clip-rule="evenodd" d="M88.4702 0.196777H635.47V59.1968H88.4702V0.196777Z" fill="#242A45"/>
<path opacity="0.245" d="M130.47 46.1968C139.307 46.1968 146.47 39.0333 146.47 30.1968C146.47 21.3602 139.307 14.1968 130.47 14.1968C121.634 14.1968 114.47 21.3602 114.47 30.1968C114.47 39.0333 121.634 46.1968 130.47 46.1968Z" fill="white"/>
<path opacity="0.75" d="M278.47 20.1968H164.47C162.813 20.1968 161.47 21.5399 161.47 23.1968C161.47 24.8536 162.813 26.1968 164.47 26.1968H278.47C280.127 26.1968 281.47 24.8536 281.47 23.1968C281.47 21.5399 280.127 20.1968 278.47 20.1968Z" fill="white"/>
<path opacity="0.25" d="M222.47 34.1968H164.47C162.813 34.1968 161.47 35.5399 161.47 37.1968C161.47 38.8536 162.813 40.1968 164.47 40.1968H222.47C224.127 40.1968 225.47 38.8536 225.47 37.1968C225.47 35.5399 224.127 34.1968 222.47 34.1968Z" fill="white"/>
</g>
<path d="M348 85H127C122.582 85 119 88.5817 119 93V111C119 115.418 122.582 119 127 119H348C352.418 119 356 115.418 356 111V93C356 88.5817 352.418 85 348 85Z" fill="white"/>
<path d="M348 133H127C122.582 133 119 136.582 119 141V159C119 163.418 122.582 167 127 167H348C352.418 167 356 163.418 356 159V141C356 136.582 352.418 133 348 133Z" fill="white"/>
<path d="M348 181H127C122.582 181 119 184.582 119 189V207C119 211.418 122.582 215 127 215H348C352.418 215 356 211.418 356 207V189C356 184.582 352.418 181 348 181Z" fill="white"/>
<path d="M348 229H127C122.582 229 119 232.582 119 237V255C119 259.418 122.582 263 127 263H348C352.418 263 356 259.418 356 255V237C356 232.582 352.418 229 348 229Z" fill="white"/>
<path d="M348 277H127C122.582 277 119 280.582 119 285V303C119 307.418 122.582 311 127 311H348C352.418 311 356 307.418 356 303V285C356 280.582 352.418 277 348 277Z" fill="white"/>
<mask id="mask1_56_193" style="mask-type:luminance" maskUnits="userSpaceOnUse" x="182" y="83" width="350" height="296">
<path d="M532 83.0479H182.219V379H532V83.0479Z" fill="white"/>
</mask>
<g mask="url(#mask1_56_193)">
<path fill-rule="evenodd" clip-rule="evenodd" d="M183.293 333.34C183.963 335.358 185.008 337.338 186.467 339.275C211.669 372.749 305.843 383.907 398.691 377.089C447.167 373.527 481.361 352.563 502.972 333.339C507.658 329.173 512.118 324.759 516.332 320.117C521.001 314.972 524.645 309.257 527.242 303.222C534.889 285.444 533.416 264.906 522.119 248.061C512.542 233.785 499.397 223.237 492.606 211.518C479.674 189.2 548.043 132.782 503.552 97.1381C487.848 84.5541 454.392 81.6501 417.89 83.6021C373.462 85.9801 324.525 95.5571 297.606 103.647C241.894 120.384 207.026 144.627 199.067 171.903C191.109 199.179 212.378 211.521 230.947 237.557C248.442 262.083 172.394 300.554 183.293 333.34Z" fill="#3A499E"/>
</g>
<path fill-rule="evenodd" clip-rule="evenodd" d="M277.451 173.872L294.436 171L297 186.799L276 193L277.451 173.872Z" fill="#306299"/>
<path fill-rule="evenodd" clip-rule="evenodd" d="M295 172.118C295 172.118 308.176 171.77 322 166L315.504 178.254L296.751 184L295 172.118Z" fill="#FA9E89"/>
<mask id="mask2_56_193" style="mask-type:luminance" maskUnits="userSpaceOnUse" x="372" y="85" width="158" height="220">
<path d="M530 85.0479H372.175V304.892H530V85.0479Z" fill="white"/>
</mask>
<g mask="url(#mask2_56_193)">
<path opacity="0.152" fill-rule="evenodd" clip-rule="evenodd" d="M372.934 137.186C381.046 177.345 518.94 238.876 525.57 304.892C532.688 287.14 531.317 266.634 520.8 249.814C511.886 235.559 499.65 225.027 493.329 213.325C481.29 191.043 544.934 134.707 503.519 99.1167C488.9 86.5517 457.758 83.6517 423.779 85.6017C413.435 87.9657 365.615 100.933 372.934 137.186Z" fill="white"/>
</g>
<path opacity="0.149" fill-rule="evenodd" clip-rule="evenodd" d="M180.18 326C179.195 333.866 182.52 339.336 183.82 341.227C206.249 373.899 328.314 384.79 410.95 378.135C454.096 374.659 489.455 352.42 511 327.915L180.18 326Z" fill="black"/>
<path opacity="0.128" fill-rule="evenodd" clip-rule="evenodd" d="M458.373 329.812C458.373 329.812 468.45 330.422 468.295 333.472C468.14 336.522 461.784 343.23 461.784 343.23L471.293 339.825L500 338.732L496.9 341.401C496.9 341.401 473.773 342.468 472.74 343.281C471.706 344.094 458.476 354.057 456.203 354.463C453.929 354.87 309.515 354.688 309.515 354.688C309.515 354.688 294.657 355.277 292.176 350.702C289.696 346.128 280.704 346.432 278.223 350.397C275.743 354.362 276.087 369 276.087 369C276.087 369 269.294 367.227 268.921 367.069C245.356 357.106 219 326 219 326L458.373 329.812Z" fill="black"/>
<path fill-rule="evenodd" clip-rule="evenodd" d="M489 290.695L474.55 339.858C474.55 339.858 472.494 342.302 471 340.038L480.714 290L489 290.695ZM508.866 289L516 322.138L512.603 326L503 289.954L508.866 289Z" fill="#162F44"/>
<path fill-rule="evenodd" clip-rule="evenodd" d="M296.507 300.082L290.482 334.282L289.483 339.951L291.675 340.273L291.831 340.297L296.619 341C296.619 341 312.59 301.656 313.949 292.213C315.31 282.77 288.804 245 288.804 245L260.036 247.448C259.275 255.667 270.78 271.159 281.063 283.218C289.164 292.717 296.507 300.082 296.507 300.082Z" fill="#F4F2F9"/>
<path fill-rule="evenodd" clip-rule="evenodd" d="M296.12 298.535L289.243 338.302L291.389 338.623L291.462 339L291.542 338.648C292.417 334.818 302.682 300.911 302.994 294C303.327 286.674 288.967 264 288.967 264L281 281.714C288.93 291.188 296.12 298.534 296.12 298.534" fill="#E0DFEA"/>
<path fill-rule="evenodd" clip-rule="evenodd" d="M258 249L286.667 246.613L288 198.886C288 198.886 281 174 273.333 174C268.78 174 264.347 175.804 261.633 180.195C259.78 183.198 258.73 187.415 259 193.091C259.61 205.868 258.27 241.998 258.033 248.113C258.013 248.69 258 249 258 249Z" fill="#6397D9"/>
<path fill-rule="evenodd" clip-rule="evenodd" d="M265.885 245.276L265.347 188.458L272 174.938L264.237 174L261.508 177.21C259.718 180.213 258.705 184.43 258.966 190.104C259.555 202.878 258.229 239.886 258 246L265.885 245.276Z" fill="#8BBFF7"/>
<path fill-rule="evenodd" clip-rule="evenodd" d="M266 190L287.017 230L287.563 212.009L288 197.411L270.476 190H266Z" fill="#306299"/>
<path fill-rule="evenodd" clip-rule="evenodd" d="M319.671 353H448.33C453.119 353 457.001 349.092 457.001 344.27V123.73C457.001 118.908 453.119 115 448.33 115H319.67C314.881 115 310.999 118.908 310.999 123.73V344.27C310.999 349.092 314.881 353 319.67 353" fill="white"/>
<path fill-rule="evenodd" clip-rule="evenodd" d="M319 146.29V234.71C319 236.528 320.456 238 322.253 238H445.747C447.544 238 449 236.528 449 234.71V146.29C449 144.472 447.544 143 445.747 143H322.253C320.456 143 319 144.472 319 146.29Z" fill="#E4DCF1"/>
<path fill-rule="evenodd" clip-rule="evenodd" d="M383.147 167L384.699 168.183L388 182.554L387.929 184.921L382.702 185C382.347 185.005 381.989 184.935 381.672 184.75C380.177 183.872 379.539 181.425 380.364 179.257C380.808 178.091 381.945 176.027 382.077 175.115C382.391 172.931 383.147 167 383.147 167Z" fill="#8E2B43"/>
<path fill-rule="evenodd" clip-rule="evenodd" d="M356 241L410.224 240.792L412.019 240.786C412.019 240.786 418.506 210.137 408.003 198.325C405.445 195.451 402.12 193.332 398.497 191.955C387.224 187.658 373.044 190.5 370.004 199.921C365.988 212.372 356 241 356 241Z" fill="#4EC9B4"/>
<path fill-rule="evenodd" clip-rule="evenodd" d="M398.16 192.489C398.16 192.489 395.945 198.515 391.057 199.783C386.169 201.052 380.568 196.559 381.027 191.326C381.027 191.326 385.711 190.639 386.474 188.366C387.402 185.606 386.78 185.512 386.78 185.512C386.78 185.512 384.947 182.022 384.336 179.486C383.725 176.949 384.641 167.116 388.918 166.166C391.623 165.564 395.945 166.483 399 170.923C399 170.923 397.472 179.486 395.334 183.609C393.195 187.732 392.126 189.635 398.16 192.489Z" fill="#FA9E89"/>
<path opacity="0.184" fill-rule="evenodd" clip-rule="evenodd" d="M322.167 116.013L455 302.239V344.483C455 349.187 451.3 353 446.737 353H326.573C321.286 353 317 348.582 317 343.131V119.827C317 116.898 319.33 115.871 322.167 116.013Z" fill="#F4F2F9"/>
<path fill-rule="evenodd" clip-rule="evenodd" d="M362 222.442L355.018 192L344 193.816L354.684 238L362 222.442Z" fill="#4EC9B4"/>
<path fill-rule="evenodd" clip-rule="evenodd" d="M352.8 191.137L352.2 188.031C352.2 188.031 354 186.847 353.7 185.072C353.4 183.297 354 179.155 354 179.155C354 179.155 353.043 178.508 352.425 179.673C351.985 180.502 351.3 182.41 351.3 182.41C351.3 182.41 349.004 176.244 348.474 174.62C348.249 173.929 348.022 172.853 347.499 173.017C347.224 173.103 347.324 173.732 347.371 174.347C347.511 176.191 348.299 179.131 348.299 179.131L347.899 179.365L346.236 174.089C346.163 173.833 346.043 173.445 345.774 173.424C345.536 173.404 345.299 173.534 345.299 174.126C345.299 175.31 346.574 180.203 346.574 180.203L346.255 180.422L344.32 176.144C344.187 175.821 343.707 175.849 343.625 176.188C343.56 176.456 343.579 176.838 343.798 177.38C344.398 178.86 344.998 181.226 344.998 181.226L344.848 181.399L343.798 179.229C343.61 178.882 343.149 178.659 343.015 179.029C342.827 179.547 344.473 183.999 344.473 184.296C344.473 184.592 345.599 188.622 346.799 188.918C347.999 189.214 348.074 192 348.074 192L352.8 191.137Z" fill="#FA9E89"/>
<path fill-rule="evenodd" clip-rule="evenodd" d="M422.351 264H444.65C445.948 264 447.001 262.928 447.001 261.606V258.394C447.001 257.072 445.948 256 444.65 256H422.352C421.054 256 420.001 257.072 420.001 258.394V261.606C420.001 262.928 421.053 264 422.351 264ZM390.352 264H412.65C413.948 264 415.001 262.928 415.001 261.606V258.394C415.001 257.072 413.948 256 412.65 256H390.352C389.054 256 388.001 257.072 388.001 258.394V261.606C388.001 262.928 389.054 264 390.352 264ZM356.352 264H378.65C379.948 264 381.001 262.928 381.001 261.606V258.394C381.001 257.072 379.948 256 378.65 256H356.353C355.054 256 354.001 257.072 354.001 258.394V261.606C354.001 262.928 355.053 264 356.352 264ZM324.353 264H346.65C347.948 264 349.001 262.928 349.001 261.606V258.394C349.001 257.072 347.948 256 346.65 256H324.352C323.054 256 322.001 257.072 322.001 258.394V261.606C322.001 262.928 323.055 264 324.353 264Z" fill="#FFDEDD"/>
<path fill-rule="evenodd" clip-rule="evenodd" d="M326.547 283H444.453C445.86 283 447 281.92 447 280.59V277.41C447 276.08 445.86 275 444.453 275H326.547C325.14 275 324 276.08 324 277.41V280.59C324 281.92 325.14 283 326.547 283ZM444.453 299C445.86 299 447 297.92 447 296.59V293.41C447 292.08 445.86 291 444.453 291H326.547C325.14 291 324 292.08 324 293.41V296.59C324 297.92 325.14 299 326.547 299H444.453ZM326.547 315H444.453C445.86 315 447 313.92 447 312.59V309.41C447 308.08 445.86 307 444.453 307H326.547C325.14 307 324 308.08 324 309.41V312.59C324 313.92 325.14 315 326.547 315ZM326.547 328H444.453C445.86 328 447 326.92 447 325.59V322.41C447 321.08 445.86 320 444.453 320H326.547C325.14 320 324 321.08 324 322.41V325.59C324 326.92 325.14 328 326.547 328Z" fill="#F4F2F9"/>
<path fill-rule="evenodd" clip-rule="evenodd" d="M401.222 163.321C401.222 163.321 394.922 154.473 383.032 159.596C371.144 164.718 384.049 173.1 384.049 173.1C384.049 173.1 384.303 169.84 386.183 168.909L386.03 171.806L392.686 172.971L393.753 170.177L394.439 173.359L397.792 174.6C397.792 174.6 395.049 184.224 393.448 185.621C393.448 185.621 392.762 187.871 392.991 188.337C393.219 188.803 403.355 191.364 404.651 189.036C405.947 186.708 403.279 183.448 402.441 181.275C401.603 179.102 403.965 167.564 401.221 163.321" fill="#FC516B"/>
<path fill-rule="evenodd" clip-rule="evenodd" d="M430.352 139H447.648C448.947 139 450 137.657 450 136C450 134.343 448.947 133 447.648 133H430.352C429.053 133 428 134.343 428 136C428 137.657 429.053 139 430.352 139Z" fill="#E4DCF1"/>
<path fill-rule="evenodd" clip-rule="evenodd" d="M404 211C404 211 401.336 230.286 398.29 238H382.23C382.23 238 379.582 229.862 392.277 227.2C401.107 225.349 404 211 404 211ZM372.389 206C372.389 206 369.129 216 369.741 219C370.351 222 373 224.2 373 226.2C373 228.2 371.37 235.8 371.37 235.8L362 236C362 236 363.556 235.734 367.093 232.95C372.491 228.7 367.857 219.325 369.003 214C369.603 211.206 372.389 206 372.389 206ZM362 221.772C362 221.772 361.787 230.155 360.085 228.865C358.383 227.575 359.447 215.108 357.958 210.809C356.468 206.509 352 192.752 352 192.752L355.83 192L362 221.772Z" fill="#44AD99"/>
<path fill-rule="evenodd" clip-rule="evenodd" d="M336.623 183.475C336.623 183.475 335.047 184.167 333.123 186.521C332.487 187.301 329.093 188.542 328.29 189.509C316.645 203.529 301.094 214.35 291.127 210.042C278.397 204.54 276 199.424 276 199.424L284.414 188.062C284.414 188.062 294.077 202.821 301.848 198.801C309.62 194.781 324.94 184.244 324.94 184.244L325.346 177.78C325.346 177.78 326.241 177.54 326.67 178.775C327.1 180.011 327.12 181.079 327.12 181.079L333.169 174.055C333.169 174.055 334.331 173.695 333.977 174.824C333.623 175.954 331.486 179.192 331.486 179.192C331.486 179.192 331.266 179.808 331.729 179.527C332.269 179.2 336.495 174.435 336.495 174.435C336.495 174.435 337.468 174.371 337.071 175.301C336.764 176.018 334.206 179.391 333.341 180.655C333.083 181.031 333.623 180.89 333.623 180.89L337.119 177.92C337.592 177.601 338.082 177.707 337.989 178.288C337.914 178.748 336.962 179.807 336.396 180.227C334.982 181.273 333.996 183.179 333.996 183.179L337.04 182.079C337.04 182.079 337.635 182.607 336.623 183.475ZM265 146.49L268.85 174.81L281.496 177C281.496 177 280.856 176.332 280.124 175.44C279.376 174.533 278.534 173.39 278.161 172.474C277.311 170.37 277.305 168.408 277.305 168.408C277.305 168.408 282.913 169.041 283.782 165.813C284.654 162.581 282.639 147.529 282.639 147.529C282.639 147.529 280.136 138.07 265 146.49Z" fill="#FA9E89"/>
<path fill-rule="evenodd" clip-rule="evenodd" d="M275.613 146.812C275.613 146.812 281.849 151.522 287.832 147.51C287.832 147.51 284.04 147.16 282.86 145.242C282.86 145.242 285.22 145.852 288 141.928C288 141.928 283.113 142.626 281.428 141.143C279.742 139.66 271.148 137.305 266.008 140.881C260.867 144.457 260.951 147.074 260.951 147.074C260.951 147.074 257.918 148.207 258.001 149.952C258.086 151.696 265.501 166 265.501 166L267.102 159.633C267.102 159.633 265.838 160.011 265.08 157.046C264.322 154.08 267.608 155.359 267.945 155.97C268.282 156.58 270.473 151.783 270.473 151.783L270.136 148.993C270.136 148.993 269.04 145.415 275.613 146.812Z" fill="#261F27"/>
<path fill-rule="evenodd" clip-rule="evenodd" d="M263.786 279.384C267.377 293.871 260.736 351.793 260.736 351.793L267.234 353C293.394 292.985 287.41 244 287.41 244L258 246.414C258 246.414 258.075 245.19 258.106 245.48C258.444 248.488 260.514 266.169 263.786 279.384Z" fill="white"/>
<path fill-rule="evenodd" clip-rule="evenodd" d="M296.27 337.076L303.823 342.935C303.823 342.935 306.798 342.576 307.371 343.951C307.943 345.326 308 346.881 308 346.881L300.104 347L287 341.799L289.06 336L296.27 337.076ZM266.45 354.34C266.45 354.34 269.122 358.662 271.815 362.192C272.72 363.378 274.932 363.893 275.793 366.787C276.533 369.277 275.053 371 275.053 371C275.053 371 270.088 370.106 266.634 367.043C263.181 363.979 258 358.106 258 358.106L259.418 353L266.449 354.34H266.45Z" fill="#6397D9"/>
<path fill-rule="evenodd" clip-rule="evenodd" d="M466 282C466 285.866 478.984 289 495 289C511.016 289 524 285.866 524 282C524 278.134 511.016 275 495 275C478.984 275 466 278.134 466 282Z" fill="#224A7D"/>
<path fill-rule="evenodd" clip-rule="evenodd" d="M466 281C466 284.866 478.984 288 495 288C511.016 288 524 284.866 524 281C524 277.134 511.016 274 495 274C478.984 274 466 277.134 466 281Z" fill="#6397D9"/>
<path fill-rule="evenodd" clip-rule="evenodd" d="M487 277C487 278.657 492.373 280 499 280C505.627 280 511 278.657 511 277C511 275.343 505.627 274 499 274C492.373 274 487 275.343 487 277ZM524 280V283.986C524 283.986 523.93 286.45 519 288L520.179 283.682C520.179 283.682 523.642 282.187 524 280Z" fill="#162F44"/>
<path fill-rule="evenodd" clip-rule="evenodd" d="M466.006 280V284.085C466.006 284.085 465.616 286.128 471 288L469.348 283.234C469.348 283.234 466.488 281.957 466.006 280Z" fill="#8CC5F2"/>
<path fill-rule="evenodd" clip-rule="evenodd" d="M485 267.038L486.968 274.728C487.456 276.642 489.391 278 491.621 278H495.854C497.439 278 498.879 277.315 499.754 276.228C500.06 275.848 500.295 275.415 500.446 274.95L502.152 269.637L503 267L485 267.038Z" fill="#FC516B"/>
<path fill-rule="evenodd" clip-rule="evenodd" d="M485 266C485 266.552 489.03 267 494 267C498.97 267 503 266.552 503 266C503 265.448 498.97 265 494 265C489.03 265 485 265.448 485 266Z" fill="#9B293F"/>
<path fill-rule="evenodd" clip-rule="evenodd" d="M497.406 276.657C497.052 276.794 496.718 276.91 496.406 277L498.516 276.676C498.811 276.267 499.033 275.81 499.173 275.326L500.789 269.718C500.87 269.448 501 269.018 501 269C501 269 496.785 270.242 493 269.818C494.231 269.982 497.31 270.23 499.168 270.138C499.275 270.131 499.381 270.148 499.481 270.187C499.58 270.227 499.669 270.287 499.742 270.365C499.815 270.443 499.87 270.536 499.903 270.638C499.936 270.74 499.946 270.847 499.932 270.953C499.698 272.61 499.027 276.027 497.406 276.657Z" fill="#F995A9"/>
<path fill-rule="evenodd" clip-rule="evenodd" d="M493 263.901L493.679 266.988L494.173 267C494.173 267 494.201 263.901 497.847 262C501.497 260.1 500.974 253 500.974 253L500.971 253.009C500.883 253.192 499.483 256.109 498.422 256.299C497.328 256.501 496.649 258.249 496.649 258.249C496.649 258.249 496.127 258.999 495.502 258.849C494.876 258.699 494.251 260.349 494.251 260.349L494.044 262.101L493 263.901Z" fill="#51A595"/>
<path fill-rule="evenodd" clip-rule="evenodd" d="M497.993 269.987C497.993 269.987 498.693 246.551 486.393 240C486.393 240 482.892 241.352 486.993 246.967C491.093 252.582 487.792 256.637 489.593 258.094C491.393 259.549 493.993 260.485 493.593 262.357C493.193 264.229 493.693 266.101 494.493 266.309C495.293 266.516 497.093 267.621 497.373 270L497.993 269.987Z" fill="#4EC9B4"/>
<path fill-rule="evenodd" clip-rule="evenodd" d="M498 265.8L498.04 266.988L498.578 267C498.578 267 498.608 263.901 502.572 262C506.54 260.1 505.972 253 505.972 253L505.968 253.009L505.632 254.077C505.632 260.527 501.909 261.864 500.42 262.725C498.931 263.586 498 265.8 498 265.8Z" fill="#41877A"/>
<path fill-rule="evenodd" clip-rule="evenodd" d="M278.185 177.105C278.185 177.105 267.633 177.277 266.691 176L266 177.898C266 177.898 274.36 182.455 280 180.522L278.185 177.105Z" fill="#306299"/>
<path fill-rule="evenodd" clip-rule="evenodd" d="M293 190.916L280.412 205C280.412 205 263.59 189.918 264.008 185.19C264.425 180.463 270.588 170.675 280.042 179.667C289.24 188.415 293 190.916 293 190.916Z" fill="#8CC5F2"/>
<path fill-rule="evenodd" clip-rule="evenodd" d="M260.565 352.654L263.131 353C263.131 353 275.157 310.53 271.201 279.153C270.012 269.719 265.857 246 265.857 246L258 246.737C258.318 249.76 260.357 266.592 263.426 279.874C266.793 294.436 260.566 352.654 260.566 352.654" fill="#F4F2F9"/>
<path fill-rule="evenodd" clip-rule="evenodd" d="M274.253 175.558C275.741 175.882 276.552 175.985 277 176C276.302 175.034 275.516 173.818 275.168 172.842C274.375 170.601 274.369 168.512 274.369 168.512C274.369 168.512 271.398 167.73 271.092 168.099C270.788 168.467 271.092 174.869 274.253 175.558Z" fill="#E6846F"/>
<path fill-rule="evenodd" clip-rule="evenodd" d="M420 179C420 189.492 428.048 198 437.973 198C442.129 198 445.954 196.509 449 194.004V163.996C445.954 161.49 442.13 160 437.973 160C428.048 160 420 168.508 420 179Z" fill="#CEC3E2"/>
<path fill-rule="evenodd" clip-rule="evenodd" d="M420 179.5C420 189.716 427.493 198 436.734 198C440.604 198 444.164 196.548 447 194.11V164.89C444.165 162.453 440.603 161 436.734 161C427.493 161 420 169.284 420 179.5Z" fill="#C3B8D8"/>
<path fill-rule="evenodd" clip-rule="evenodd" d="M394 196.096C394 196.096 395.985 194.992 396.298 194.791C396.612 194.592 400.688 195.693 406.124 201.307C411.557 206.921 406.854 211.631 409.152 214.637C411.453 217.645 409.259 223.96 408.108 228.272C406.958 232.582 408.108 237.994 408.108 237.994L408.168 238L409.989 237.994C409.989 237.994 416.573 209.126 405.914 197.999C403.318 195.293 399.944 193.296 396.267 192L394 196.096Z" fill="#44AD99"/>
</svg>
