<svg width="570" height="406" viewBox="0 0 570 406" fill="none" xmlns="http://www.w3.org/2000/svg">
<g clip-path="url(#clip0_56_194)">
<path d="M434 0H100C95.5817 0 92 3.58172 92 8V338C92 342.418 95.5817 346 100 346H434C438.418 346 442 342.418 442 338V8C442 3.58172 438.418 0 434 0Z" fill="#E8EAF6"/>
<mask id="mask0_56_194" style="mask-type:luminance" maskUnits="userSpaceOnUse" x="92" y="0" width="350" height="346">
<path d="M434 0H100C95.5817 0 92 3.58172 92 8V338C92 342.418 95.5817 346 100 346H434C438.418 346 442 342.418 442 338V8C442 3.58172 438.418 0 434 0Z" fill="white"/>
</mask>
<g mask="url(#mask0_56_194)">
<path fill-rule="evenodd" clip-rule="evenodd" d="M88.4702 0.196777H635.47V59.1968H88.4702V0.196777Z" fill="#242A45"/>
<path opacity="0.245" d="M130.47 46.1968C139.307 46.1968 146.47 39.0333 146.47 30.1968C146.47 21.3602 139.307 14.1968 130.47 14.1968C121.634 14.1968 114.47 21.3602 114.47 30.1968C114.47 39.0333 121.634 46.1968 130.47 46.1968Z" fill="white"/>
<path opacity="0.75" d="M278.47 20.1968H164.47C162.813 20.1968 161.47 21.5399 161.47 23.1968C161.47 24.8536 162.813 26.1968 164.47 26.1968H278.47C280.127 26.1968 281.47 24.8536 281.47 23.1968C281.47 21.5399 280.127 20.1968 278.47 20.1968Z" fill="white"/>
<path opacity="0.25" d="M222.47 34.1968H164.47C162.813 34.1968 161.47 35.5399 161.47 37.1968C161.47 38.8536 162.813 40.1968 164.47 40.1968H222.47C224.127 40.1968 225.47 38.8536 225.47 37.1968C225.47 35.5399 224.127 34.1968 222.47 34.1968Z" fill="white"/>
</g>
<g filter="url(#filter0_d_56_194)">
<path d="M311 138H127C122.582 138 119 141.582 119 146V385C119 389.418 122.582 393 127 393H311C315.418 393 319 389.418 319 385V146C319 141.582 315.418 138 311 138Z" fill="black"/>
</g>
<path d="M311 138H127C122.582 138 119 141.582 119 146V385C119 389.418 122.582 393 127 393H311C315.418 393 319 389.418 319 385V146C319 141.582 315.418 138 311 138Z" fill="white"/>
<path opacity="0.5" d="M286 173H190.683C189.026 173 187.683 174.343 187.683 176C187.683 177.657 189.026 179 190.683 179H286C287.657 179 289 177.657 289 176C289 174.343 287.657 173 286 173Z" fill="#242A45"/>
<path d="M158 199C166.837 199 174 191.837 174 183C174 174.163 166.837 167 158 167C149.163 167 142 174.163 142 183C142 191.837 149.163 199 158 199Z" fill="#5267DF"/>
<path opacity="0.25" d="M238.719 187H190.683C189.026 187 187.683 188.343 187.683 190C187.683 191.657 189.026 193 190.683 193H238.719C240.376 193 241.719 191.657 241.719 190C241.719 188.343 240.376 187 238.719 187Z" fill="#242A45"/>
<path d="M158 255C166.837 255 174 247.837 174 239C174 230.163 166.837 223 158 223C149.163 223 142 230.163 142 239C142 247.837 149.163 255 158 255Z" fill="#5267DF"/>
<path opacity="0.5" d="M286 229H190.683C189.026 229 187.683 230.343 187.683 232C187.683 233.657 189.026 235 190.683 235H286C287.657 235 289 233.657 289 232C289 230.343 287.657 229 286 229Z" fill="#242A45"/>
<path opacity="0.25" d="M238.719 243H190.683C189.026 243 187.683 244.343 187.683 246C187.683 247.657 189.026 249 190.683 249H238.719C240.376 249 241.719 247.657 241.719 246C241.719 244.343 240.376 243 238.719 243Z" fill="#242A45"/>
<path d="M158 311C166.837 311 174 303.837 174 295C174 286.163 166.837 279 158 279C149.163 279 142 286.163 142 295C142 303.837 149.163 311 158 311Z" fill="#5267DF"/>
<path opacity="0.5" d="M286 285H190.683C189.026 285 187.683 286.343 187.683 288C187.683 289.657 189.026 291 190.683 291H286C287.657 291 289 289.657 289 288C289 286.343 287.657 285 286 285Z" fill="#242A45"/>
<path opacity="0.25" d="M238.719 299H190.683C189.026 299 187.683 300.343 187.683 302C187.683 303.657 189.026 305 190.683 305H238.719C240.376 305 241.719 303.657 241.719 302C241.719 300.343 240.376 299 238.719 299Z" fill="#242A45"/>
<path d="M158 367C166.837 367 174 359.837 174 351C174 342.163 166.837 335 158 335C149.163 335 142 342.163 142 351C142 359.837 149.163 367 158 367Z" fill="#5267DF"/>
<path opacity="0.5" d="M286 341H190.683C189.026 341 187.683 342.343 187.683 344C187.683 345.657 189.026 347 190.683 347H286C287.657 347 289 345.657 289 344C289 342.343 287.657 341 286 341Z" fill="#242A45"/>
<path opacity="0.25" d="M238.719 355H190.683C189.026 355 187.683 356.343 187.683 358C187.683 359.657 189.026 361 190.683 361H238.719C240.376 361 241.719 359.657 241.719 358C241.719 356.343 240.376 355 238.719 355Z" fill="#242A45"/>
<g filter="url(#filter1_d_56_194)">
<g filter="url(#filter2_d_56_194)">
<path d="M535 138H351C346.582 138 343 141.582 343 146V385C343 389.418 346.582 393 351 393H535C539.418 393 543 389.418 543 385V146C543 141.582 539.418 138 535 138Z" fill="black"/>
</g>
<path d="M535 138H351C346.582 138 343 141.582 343 146V385C343 389.418 346.582 393 351 393H535C539.418 393 543 389.418 543 385V146C543 141.582 539.418 138 535 138Z" fill="white"/>
<path opacity="0.5" d="M510 173H414.683C413.026 173 411.683 174.343 411.683 176C411.683 177.657 413.026 179 414.683 179H510C511.657 179 513 177.657 513 176C513 174.343 511.657 173 510 173Z" fill="#242A45"/>
<path d="M382 199C390.837 199 398 191.837 398 183C398 174.163 390.837 167 382 167C373.163 167 366 174.163 366 183C366 191.837 373.163 199 382 199Z" fill="#5267DF"/>
<path opacity="0.25" d="M462.719 187H414.683C413.026 187 411.683 188.343 411.683 190C411.683 191.657 413.026 193 414.683 193H462.719C464.376 193 465.719 191.657 465.719 190C465.719 188.343 464.376 187 462.719 187Z" fill="#242A45"/>
<path d="M382 255C390.837 255 398 247.837 398 239C398 230.163 390.837 223 382 223C373.163 223 366 230.163 366 239C366 247.837 373.163 255 382 255Z" fill="#FA5959"/>
<path opacity="0.5" d="M510 229H414.683C413.026 229 411.683 230.343 411.683 232C411.683 233.657 413.026 235 414.683 235H510C511.657 235 513 233.657 513 232C513 230.343 511.657 229 510 229Z" fill="#242A45"/>
<path opacity="0.25" d="M462.719 243H414.683C413.026 243 411.683 244.343 411.683 246C411.683 247.657 413.026 249 414.683 249H462.719C464.376 249 465.719 247.657 465.719 246C465.719 244.343 464.376 243 462.719 243Z" fill="#242A45"/>
<path d="M382 311C390.837 311 398 303.837 398 295C398 286.163 390.837 279 382 279C373.163 279 366 286.163 366 295C366 303.837 373.163 311 382 311Z" fill="#5267DF"/>
<path opacity="0.5" d="M510 285H414.683C413.026 285 411.683 286.343 411.683 288C411.683 289.657 413.026 291 414.683 291H510C511.657 291 513 289.657 513 288C513 286.343 511.657 285 510 285Z" fill="#242A45"/>
<path opacity="0.25" d="M462.719 299H414.683C413.026 299 411.683 300.343 411.683 302C411.683 303.657 413.026 305 414.683 305H462.719C464.376 305 465.719 303.657 465.719 302C465.719 300.343 464.376 299 462.719 299Z" fill="#242A45"/>
<path d="M382 367C390.837 367 398 359.837 398 351C398 342.163 390.837 335 382 335C373.163 335 366 342.163 366 351C366 359.837 373.163 367 382 367Z" fill="#5267DF"/>
<path opacity="0.5" d="M510 341H414.683C413.026 341 411.683 342.343 411.683 344C411.683 345.657 413.026 347 414.683 347H510C511.657 347 513 345.657 513 344C513 342.343 511.657 341 510 341Z" fill="#242A45"/>
<path opacity="0.25" d="M462.719 355H414.683C413.026 355 411.683 356.343 411.683 358C411.683 359.657 413.026 361 414.683 361H462.719C464.376 361 465.719 359.657 465.719 358C465.719 356.343 464.376 355 462.719 355Z" fill="#242A45"/>
</g>
<path d="M348 85H127C122.582 85 119 88.5817 119 93V111C119 115.418 122.582 119 127 119H348C352.418 119 356 115.418 356 111V93C356 88.5817 352.418 85 348 85Z" fill="white"/>
<path d="M464 236C501.003 236 531 206.003 531 169C531 131.997 501.003 102 464 102C426.997 102 397 131.997 397 169C397 206.003 426.997 236 464 236Z" fill="#495DCF" fill-opacity="0.2" stroke="#5267DF" stroke-width="20"/>
<path d="M511 217L560 266" stroke="#5267DF" stroke-width="20" stroke-linecap="round" stroke-linejoin="round"/>
</g>
<defs>
<filter id="filter0_d_56_194" x="109" y="133" width="220" height="275" filterUnits="userSpaceOnUse" color-interpolation-filters="sRGB">
<feFlood flood-opacity="0" result="BackgroundImageFix"/>
<feColorMatrix in="SourceAlpha" type="matrix" values="0 0 0 0 0 0 0 0 0 0 0 0 0 0 0 0 0 0 127 0" result="hardAlpha"/>
<feOffset dy="5"/>
<feGaussianBlur stdDeviation="5"/>
<feColorMatrix type="matrix" values="0 0 0 0 0.285333 0 0 0 0 0.363695 0 0 0 0 0.811481 0 0 0 0.0830693 0"/>
<feBlend mode="normal" in2="BackgroundImageFix" result="effect1_dropShadow_56_194"/>
<feBlend mode="normal" in="SourceGraphic" in2="effect1_dropShadow_56_194" result="shape"/>
</filter>
<filter id="filter1_d_56_194" x="333" y="133" width="220" height="275" filterUnits="userSpaceOnUse" color-interpolation-filters="sRGB">
<feFlood flood-opacity="0" result="BackgroundImageFix"/>
<feColorMatrix in="SourceAlpha" type="matrix" values="0 0 0 0 0 0 0 0 0 0 0 0 0 0 0 0 0 0 127 0" result="hardAlpha"/>
<feOffset dy="5"/>
<feGaussianBlur stdDeviation="5"/>
<feColorMatrix type="matrix" values="0 0 0 0 0.285333 0 0 0 0 0.363695 0 0 0 0 0.811481 0 0 0 0.0830693 0"/>
<feBlend mode="normal" in2="BackgroundImageFix" result="effect1_dropShadow_56_194"/>
<feBlend mode="normal" in="SourceGraphic" in2="effect1_dropShadow_56_194" result="shape"/>
</filter>
<filter id="filter2_d_56_194" x="333" y="133" width="220" height="275" filterUnits="userSpaceOnUse" color-interpolation-filters="sRGB">
<feFlood flood-opacity="0" result="BackgroundImageFix"/>
<feColorMatrix in="SourceAlpha" type="matrix" values="0 0 0 0 0 0 0 0 0 0 0 0 0 0 0 0 0 0 127 0" result="hardAlpha"/>
<feOffset dy="5"/>
<feGaussianBlur stdDeviation="5"/>
<feColorMatrix type="matrix" values="0 0 0 0 0.285333 0 0 0 0 0.363695 0 0 0 0 0.811481 0 0 0 0.0830693 0"/>
<feBlend mode="normal" in2="BackgroundImageFix" result="effect1_dropShadow_56_194"/>
<feBlend mode="normal" in="SourceGraphic" in2="effect1_dropShadow_56_194" result="shape"/>
</filter>
<clipPath id="clip0_56_194">
<rect width="570" height="406" fill="white"/>
</clipPath>
</defs>
</svg>
