<svg width="120" height="21" viewBox="0 0 120 21" fill="none" xmlns="http://www.w3.org/2000/svg">
<g clip-path="url(#clip0_7_306)">
<path d="M30.4919 5.25696H34.7166C35.3196 5.25696 35.8757 5.39017 36.3832 5.65745C36.8916 5.92473 37.2909 6.28912 37.5827 6.74891C37.8744 7.20869 38.0207 7.71145 38.0207 8.25632C38.0207 8.83385 37.8874 9.33403 37.6207 9.75686C37.3539 10.1788 37.0048 10.5028 36.5724 10.7271V10.856C37.1357 11.0692 37.5827 11.4087 37.9149 11.8745C38.2462 12.3394 38.4127 12.898 38.4127 13.5503C38.4127 14.182 38.2543 14.7406 37.9375 15.227C37.6146 15.7191 37.1709 16.1077 36.6548 16.3503C36.1173 16.6124 35.5208 16.743 34.867 16.743H30.4919V5.25696ZM34.5655 9.94077C35.0084 9.94077 35.3624 9.81014 35.6291 9.54802C35.8959 9.2859 36.0292 8.95674 36.0292 8.56141C36.0292 8.17639 35.9007 7.85326 35.6445 7.59027C35.3875 7.32901 35.048 7.19752 34.6261 7.19752H32.5287V9.94077H34.5655ZM34.7918 14.7698C35.2848 14.7698 35.6696 14.6332 35.946 14.3607C36.2224 14.0883 36.3606 13.7325 36.3606 13.2942C36.3606 12.8559 36.22 12.4975 35.9387 12.2191C35.6566 11.9406 35.2541 11.8023 34.7312 11.8023H32.5287V14.7698H34.7918ZM45.24 17C44.1836 17 43.2258 16.7353 42.3659 16.2059C41.5174 15.6889 40.8162 14.9376 40.3364 14.0316C39.8433 13.112 39.5968 12.1013 39.5968 10.9996C39.5968 9.89866 39.8433 8.88799 40.3364 7.96756C40.8161 7.06193 41.517 6.31098 42.365 5.7941C43.2266 5.2647 44.1836 5 45.2408 5C46.2964 5 47.2549 5.2647 48.1149 5.7941C48.9631 6.31121 49.664 7.06248 50.1436 7.96842C50.6366 8.88799 50.8831 9.89866 50.8831 10.9996C50.8831 12.1013 50.6366 13.112 50.1436 14.0316C49.664 14.9375 48.9631 15.6888 48.1149 16.2059C47.2549 16.7353 46.2955 17 45.24 17ZM45.24 14.946C45.8787 14.9529 46.508 14.7816 47.065 14.4493C47.6139 14.1224 48.066 13.639 48.3703 13.0536C48.6871 12.4546 48.8456 11.7696 48.8456 10.9996C48.8456 10.2295 48.6871 9.54544 48.3703 8.94643C48.066 8.36097 47.6139 7.87757 47.065 7.55074C46.508 7.21806 45.8788 7.04649 45.24 7.05314C44.6031 7.04567 43.9758 7.21734 43.4214 7.55074C42.876 7.87949 42.4269 8.36261 42.1242 8.94643C41.8074 9.54544 41.6489 10.2295 41.6489 11.0004C41.6489 11.7696 41.8074 12.4546 42.1242 13.0536C42.4269 13.6374 42.876 14.1205 43.4214 14.4493C43.9758 14.7824 44.6032 14.9537 45.24 14.946ZM57.6489 17C56.5926 17 55.6348 16.7353 54.7748 16.2059C53.9267 15.6888 53.2257 14.9375 52.7461 14.0316C52.2531 13.112 52.0066 12.1013 52.0066 10.9996C52.0066 9.89866 52.2531 8.88799 52.7453 7.96756C53.2252 7.06182 53.9265 6.31086 54.7748 5.7941C55.6348 5.2647 56.5934 5 57.6489 5C58.7053 5 59.6631 5.2647 60.5231 5.7941C61.3712 6.31121 62.0722 7.06248 62.5518 7.96842C63.0448 8.88799 63.2913 9.89866 63.2913 10.9996C63.2913 12.1013 63.0448 13.112 62.5526 14.0316C62.0728 14.9376 61.3715 15.6889 60.5231 16.2059C59.6631 16.7353 58.7045 17 57.6489 17ZM57.6489 14.946C58.2879 14.9531 58.9175 14.7818 59.4748 14.4493C60.0234 14.1223 60.4752 13.6389 60.7793 13.0536C61.0961 12.4546 61.2545 11.7696 61.2545 10.9996C61.2545 10.2295 61.0961 9.54544 60.7793 8.94643C60.4752 8.36109 60.0234 7.87769 59.4748 7.55074C58.9176 7.21792 58.288 7.04634 57.6489 7.05314C57.0121 7.04567 56.3847 7.21734 55.8304 7.55074C55.2849 7.87949 54.8359 8.36261 54.5332 8.94643C54.2163 9.54544 54.0579 10.2295 54.0579 11.0004C54.0579 11.7696 54.2163 12.4546 54.5332 13.0536C54.8361 13.6375 55.2855 14.1206 55.8312 14.4493C56.3854 14.7822 57.0125 14.9536 57.6489 14.946ZM65.109 5.25782H67.1458V10.1823H67.2671L71.2194 5.25782H73.6789V5.38588L69.7726 10.1333L74.087 16.615V16.743H71.5976L68.3695 11.8504L67.1474 13.3741V16.743H65.1107V5.25696L65.109 5.25782ZM76.3832 5H79.0084L81.8744 13.0699H81.9957L84.8609 5H87.5014V16.4861H85.48V10.8234L85.6013 8.91463H85.48L82.7336 16.4861H81.1495L78.3885 8.91463H78.2681L78.3893 10.8234V16.4869H76.3824L76.3832 5ZM93.1947 5H95.5338L99.592 16.4861H97.3442L96.439 13.7428H92.3048L91.3996 16.4861H89.1519L93.1947 5ZM95.7754 11.7541L94.8249 8.8665L94.4321 7.48628H94.3117L93.9197 8.8665L92.9539 11.7541H95.7754ZM101.256 5H105.194C105.898 5 106.524 5.15469 107.072 5.46494C107.62 5.77519 108.045 6.20576 108.347 6.75664C108.649 7.30667 108.799 7.9306 108.799 8.62587C108.799 9.36325 108.581 10.0181 108.143 10.5905C107.711 11.1589 107.139 11.5893 106.491 11.8341L106.477 11.9458L109.373 16.358V16.4869H107.034L104.243 12.171H103.293V16.4861H101.256V5ZM105.179 10.1823C105.642 10.1823 106.019 10.0319 106.31 9.73279C106.602 9.43286 106.748 9.05386 106.748 8.59321C106.748 8.15491 106.609 7.78106 106.333 7.47082C106.056 7.16057 105.681 7.00501 105.209 7.00501H103.293V10.1814L105.179 10.1823ZM111.022 5H113.059V9.92444H113.18L117.132 5H119.592V5.12891L115.684 9.87718L120 16.358V16.4869H117.511L114.281 11.5934L113.059 13.1172V16.4861H111.022V5Z" fill="#242A45"/>
<path d="M10.5 21C16.299 21 21 16.299 21 10.5C21 4.70101 16.299 0 10.5 0C4.70101 0 0 4.70101 0 10.5C0 16.299 4.70101 21 10.5 21Z" fill="#5267DF"/>
<path fill-rule="evenodd" clip-rule="evenodd" d="M7.29736 7.56V15.96L10.1676 13.0704L13.0363 15.96V7.56C13.0363 7.11444 12.8654 6.68713 12.5613 6.37207C12.2572 6.057 11.8447 5.88 11.4147 5.88H8.91898C8.4889 5.88 8.07644 6.057 7.77233 6.37207C7.46821 6.68713 7.29736 7.11444 7.29736 7.56Z" fill="white"/>
</g>
<defs>
<clipPath id="clip0_7_306">
<rect width="120" height="21" fill="white"/>
</clipPath>
</defs>
</svg>
