<svg width="148" height="25" viewBox="0 0 148 25" fill="none" xmlns="http://www.w3.org/2000/svg">
<g clip-path="url(#clip0_23_6)">
<path d="M37 6.29979H42.2391C42.9868 6.29979 43.6764 6.4552 44.3059 6.76703C44.9363 7.07885 45.4314 7.50397 45.7933 8.04039C46.1551 8.57681 46.3365 9.16336 46.3365 9.79904C46.3365 10.4728 46.1712 11.0564 45.8404 11.5497C45.5096 12.042 45.0766 12.42 44.5404 12.6817V12.8321C45.239 13.0807 45.7933 13.4768 46.2052 14.0202C46.6162 14.5626 46.8227 15.2144 46.8227 15.9754C46.8227 16.7123 46.6262 17.364 46.2333 17.9315C45.8329 18.5057 45.2827 18.9589 44.6426 19.242C43.9761 19.5478 43.2364 19.7002 42.4255 19.7002H37V6.29979ZM42.0517 11.7642C42.6009 11.7642 43.0399 11.6118 43.3707 11.306C43.7015 11.0002 43.8668 10.6162 43.8668 10.155C43.8668 9.70579 43.7075 9.3288 43.3897 9.02199C43.071 8.71718 42.65 8.56378 42.1268 8.56378H39.5258V11.7642H42.0517ZM42.3323 17.3981C42.9437 17.3981 43.4208 17.2387 43.7636 16.9209C44.1064 16.603 44.2778 16.1879 44.2778 15.6766C44.2778 15.1652 44.1034 14.7471 43.7546 14.4223C43.4048 14.0974 42.9056 13.936 42.2571 13.936H39.5258V17.3981H42.3323ZM55.2892 20C53.9792 20 52.7914 19.6912 51.725 19.0736C50.6728 18.4704 49.8032 17.5939 49.2082 16.5368C48.5967 15.464 48.291 14.2849 48.291 12.9995C48.291 11.7151 48.5967 10.536 49.2082 9.46215C49.803 8.40559 50.6723 7.52947 51.724 6.92645C52.7924 6.30882 53.9792 6 55.2902 6C56.5992 6 57.7879 6.30882 58.8544 6.92645C59.9062 7.52975 60.7755 8.40623 61.3702 9.46315C61.9816 10.536 62.2873 11.7151 62.2873 12.9995C62.2873 14.2849 61.9816 15.464 61.3702 16.5368C60.7755 17.5938 59.9062 18.4703 58.8544 19.0736C57.7879 19.6912 56.5982 20 55.2892 20ZM55.2892 17.6037C56.0813 17.6117 56.8616 17.4119 57.5524 17.0241C58.2331 16.6428 58.7938 16.0789 59.1711 15.3958C59.564 14.697 59.7605 13.8979 59.7605 12.9995C59.7605 12.1011 59.564 11.303 59.1711 10.6042C58.7938 9.92113 58.2331 9.35716 57.5524 8.97587C56.8617 8.58774 56.0814 8.38757 55.2892 8.39533C54.4994 8.38662 53.7214 8.5869 53.034 8.97587C52.3576 9.3594 51.8007 9.92305 51.4253 10.6042C51.0324 11.303 50.8359 12.1011 50.8359 13.0005C50.8359 13.8979 51.0324 14.697 51.4253 15.3958C51.8007 16.077 52.3576 16.6406 53.034 17.0241C53.7215 17.4128 54.4995 17.6127 55.2892 17.6037ZM70.6777 20C69.3676 20 68.1799 19.6912 67.1134 19.0736C66.0616 18.4703 65.1924 17.5938 64.5976 16.5368C63.9862 15.464 63.6805 14.2849 63.6805 12.9995C63.6805 11.7151 63.9862 10.536 64.5966 9.46215C65.1918 8.40546 66.0614 7.52933 67.1134 6.92645C68.1799 6.30882 69.3686 6 70.6777 6C71.9877 6 73.1754 6.30882 74.2419 6.92645C75.2937 7.52975 76.163 8.40623 76.7577 9.46315C77.3691 10.536 77.6748 11.7151 77.6748 12.9995C77.6748 14.2849 77.3691 15.464 76.7587 16.5368C76.1637 17.5939 75.2941 18.4704 74.2419 19.0736C73.1754 19.6912 71.9867 20 70.6777 20ZM70.6777 17.6037C71.4701 17.6119 72.2508 17.4121 72.9419 17.0241C73.6222 16.6427 74.1825 16.0787 74.5596 15.3958C74.9525 14.697 75.149 13.8979 75.149 12.9995C75.149 12.1011 74.9525 11.303 74.5596 10.6042C74.1825 9.92127 73.6222 9.35731 72.9419 8.97587C72.2509 8.58757 71.4702 8.38739 70.6777 8.39533C69.8879 8.38662 69.1099 8.5869 68.4225 8.97587C67.746 9.3594 67.1892 9.92305 66.8138 10.6042C66.4209 11.303 66.2244 12.1011 66.2244 13.0005C66.2244 13.8979 66.4209 14.697 66.8138 15.3958C67.1895 16.0771 67.7467 16.6407 68.4235 17.0241C69.1107 17.4126 69.8884 17.6125 70.6777 17.6037ZM79.929 6.3008H82.4548V12.046H82.6052L87.5065 6.3008H90.5565V6.45019L85.7123 11.9888L91.0627 19.5508V19.7002H87.9756L83.9723 13.9921L82.4568 15.7698V19.7002H79.931V6.29979L79.929 6.3008ZM93.9102 6H97.1658L100.72 15.4149H100.87L104.423 6H107.698V19.4004H105.191V12.794L105.342 10.5671H105.191L101.785 19.4004H99.8209L96.397 10.5671H96.2476L96.398 12.794V19.4014H93.9092L93.9102 6ZM114.758 6H117.659L122.692 19.4004H119.904L118.782 16.2H113.655L112.532 19.4004H109.745L114.758 6ZM117.959 13.8798L116.78 10.5109L116.293 8.90067H116.144L115.657 10.5109L114.46 13.8798H117.959ZM124.755 6H129.639C130.512 6 131.288 6.18048 131.968 6.54243C132.648 6.90439 133.175 7.40672 133.549 8.04942C133.924 8.69111 134.11 9.41904 134.11 10.2302C134.11 11.0905 133.839 11.8545 133.296 12.5222C132.76 13.1854 132.051 13.6875 131.247 13.9731L131.229 14.1034L134.822 19.251V19.4014H131.921L128.46 14.3661H127.281V19.4004H124.755V6ZM129.62 12.046C130.194 12.046 130.662 11.8705 131.023 11.5216C131.385 11.1717 131.566 10.7295 131.566 10.1921C131.566 9.68073 131.394 9.24458 131.051 8.88262C130.708 8.52066 130.243 8.33918 129.658 8.33918H127.281V12.045L129.62 12.046ZM136.866 6H139.392V11.7452H139.542L144.444 6H147.494V6.1504L142.648 11.69L148 19.251V19.4014H144.913L140.908 13.6923L139.392 15.47V19.4004H136.866V6Z" fill="white"/>
<path d="M12.5 25C19.4036 25 25 19.4036 25 12.5C25 5.59644 19.4036 0 12.5 0C5.59644 0 0 5.59644 0 12.5C0 19.4036 5.59644 25 12.5 25Z" fill="white"/>
<path fill-rule="evenodd" clip-rule="evenodd" d="M9 9V19L12.54 15.56L16.078 19V9C16.078 8.46957 15.8673 7.96086 15.4922 7.58579C15.1171 7.21071 14.6084 7 14.078 7H11C10.4696 7 9.96086 7.21071 9.58579 7.58579C9.21071 7.96086 9 8.46957 9 9Z" fill="#252B46"/>
</g>
<defs>
<clipPath id="clip0_23_6">
<rect width="148" height="25" fill="white"/>
</clipPath>
</defs>
</svg>
